<svg xmlns="http://www.w3.org/2000/svg" viewBox="3733.565 751.216 27.774 31.078">
  <defs>
    <style>
      .cls-1 {
        fill: #a5e2d0;
      }
    </style>
  </defs>
  <path id="Path_1" data-name="Path 1" class="cls-1" d="M52.218,31.9c-2.711-.284-5.818-3.224-6.386-6.219a7.816,7.816,0,0,1,.556-4.731,15.72,15.72,0,0,1,6.917-7.473,32.411,32.411,0,0,1,6.207-2.464,30.682,30.682,0,0,0,4.62-1.7,7.655,7.655,0,0,0,2.785-2.192A1.553,1.553,0,0,1,67.028,7a2.3,2.3,0,0,1,.086.229,60.215,60.215,0,0,1,2.186,9.6,34.679,34.679,0,0,1,.259,7.757,18.885,18.885,0,0,1-1.847,7.022,10.134,10.134,0,0,1-4.033,4.428,6.76,6.76,0,0,1-5.564.537,6.324,6.324,0,0,1-3.162-1.989c-.111-.136-.2-.284-.309-.426A35.606,35.606,0,0,0,64.786,16.993a.5.5,0,0,0-.08.117c-.031.056-.049.111-.074.167a40.27,40.27,0,0,1-8.208,12.3,36.044,36.044,0,0,1-7.22,5.713,31.967,31.967,0,0,1-4.539,2.415A3.18,3.18,0,0,1,43,38.059a1.232,1.232,0,0,1-1.1-1.149.894.894,0,0,1,.76-.939c.537-.074,1.087-.08,1.624-.161a10.683,10.683,0,0,0,3.668-1.3c1.4-.778,2.748-1.649,4.119-2.483A.777.777,0,0,0,52.218,31.9Z" transform="translate(3691.666 744.216)"/>
</svg>
