<?xml version="1.0" encoding="utf-8"?>
<!-- Generator: Adobe Illustrator 22.0.1, SVG Export Plug-In . SVG Version: 6.00 Build 0)  -->
<svg version="1.1" id="Calque_1" xmlns="http://www.w3.org/2000/svg" xmlns:xlink="http://www.w3.org/1999/xlink" x="0px" y="0px"
	 viewBox="0 0 512 512" style="enable-background:new 0 0 512 512;" xml:space="preserve">
<style type="text/css">
	.st0{fill:#3F8D77;}
</style>
<g>
	<path class="st0" d="M209,410.2c-43.9-4.6-94.2-52.2-103.4-100.7c-5.1-26.6-1.8-52.2,9-76.6c23.5-53,61.6-92.8,112-121
		c31.7-17.7,66-29.1,100.5-39.9c25.4-8,50.9-15.6,74.8-27.6C419.4,35.8,435,24.6,447,8.9c0.4-0.5,0.9-1,1.8-1.9
		c0.6,1.5,1.1,2.6,1.4,3.7c15.8,50.9,28.1,102.7,35.4,155.5c5.7,41.7,7.9,83.6,4.2,125.6c-3.5,39.6-11.7,78-29.9,113.7
		c-15.2,29.8-35.6,55-65.3,71.7c-28.8,16.1-58.8,18.6-90.1,8.7c-19.9-6.3-37.8-15.6-51.2-32.2c-1.8-2.2-3.3-4.6-5-6.9
		c82.5-76.4,134.7-170.4,164.2-278c-0.5,0.6-1,1.2-1.3,1.9c-0.5,0.9-0.8,1.8-1.2,2.7c-31.9,74.7-76.4,140.9-132.9,199.2
		c-34.9,36-74.1,66.5-116.9,92.5c-23.8,14.5-47.7,28.6-73.5,39.1c-8.6,3.5-17.3,7.1-27,5.7c-10-1.4-17.6-9.3-17.8-18.6
		c-0.1-7.7,4.7-14.1,12.3-15.2c8.7-1.2,17.6-1.3,26.3-2.6c21.2-3.1,41-10.8,59.4-21.1c22.6-12.6,44.5-26.7,66.7-40.2
		C207.4,411.8,208,411.1,209,410.2z"/>
</g>
</svg>
