<?xml version="1.0" encoding="utf-8"?>
<!-- Generator: Adobe Illustrator 21.1.0, SVG Export Plug-In . SVG Version: 6.00 Build 0)  -->
<svg version="1.1" id="Calque_1" xmlns="http://www.w3.org/2000/svg" xmlns:xlink="http://www.w3.org/1999/xlink" x="0px" y="0px"
	 viewBox="0 0 628 690" style="enable-background:new 0 0 628 690;" xml:space="preserve">
<style type="text/css">
	.st0{fill:#F2F2F2;}
	.st1{fill:#33A072;}
	.st2{fill:none;stroke:#269772;stroke-width:9;stroke-miterlimit:10;}
	.st3{fill:#CC7D5A;}
	.st4{fill:#C07D5A;}
	.st5{fill:#E2DD13;}
</style>
<path class="st0" d="M326.9,204.5c0,0-16.5,34.1-29.6-26C306,180,353.8,188.2,326.9,204.5z"/>
<path class="st0" d="M416.2,181.8c0,0-43.1-26.2,38.3-36C451.4,157.1,434.4,219.5,416.2,181.8z"/>
<path class="st1" d="M242.8,345.3c0,0,0.3,6.4,1.7,15.9l2.8,5.7l-2.1-1.2c0.6,3.5,1.3,7.4,2.2,11.4l2.9,2.2l-2,1.9
	c6,25.4,18.4,56.4,43.9,64.6c1.3-4.2,2.3-8.8,2-14.5l-4.7-5.7l4.3,1.7C291.6,411.6,280,388,242.8,345.3z"/>
<path class="st0" d="M367.4,127.6c0,0-107.8,29.8,0-116.5C380.9,33.2,456,155.5,367.4,127.6z"/>
<line class="st2" x1="365.9" y1="461.8" x2="365.9" y2="111.1"/>
<path class="st1" d="M329.4,282.9l-14.1,19.9L317,267c-18.6-23-42-48.7-71.5-77.5c0,0-19.4,134.8,21.3,217.4l25.6,9.7L276,423
	c17.5,26.5,43.3,44.8,81,46.6C375.1,436.9,411.3,392.5,329.4,282.9z"/>
<path class="st1" d="M502.3,294l-26.5,2.4l32.7-24.9c8.5-33.1,16.1-72.4,22.7-119.2c0,0-131.3,82.4-178.2,178.7l7.8,29.4l-16.2-9.4
	c-12.2,34.7-11.9,70.6,10.7,104.6C395.6,447.2,457.9,445.8,502.3,294z"/>
<path class="st1" d="M607,339.5c0,0-16.6,1-40.3,5.4l-11.4,9.2l0.2-7c-8.7,1.9-18,4.2-27.7,7l-2,9.6l-7.8-6.5
	c-59.9,19.6-125.6,60.5-112.3,144.9c13,4.2,26.8,7.7,41.8,7l8.8-15.5l1.5,14.3C496.7,500.8,544.1,462.6,607,339.5z"/>
<path class="st1" d="M207.3,338.6l-5.9,14l-4.2-20.5C129.5,289.5,42.8,264.5,15,263.6c17.7,30,35.2,55.6,52.1,77.5l32.2,19.5
	l-3,15.2c44.7,48.6,84.8,71.7,116.3,82.1l20-4.1l2,9.8c30.5,5.5,48.6-1.2,48.6-1.2C291.8,413.5,255.9,371.4,207.3,338.6z"/>
<g>
	<polyline class="st3" points="469,677.5 540.2,464.9 469,464.9 362.3,464.9 256.4,464.9 185.3,464.9 256.4,677.5 	"/>
</g>
<g>
	<rect x="170" y="438.3" class="st4" width="384.6" height="32.8"/>
</g>
<path class="st5" d="M369.2,117.4H362c-1.4,0-2.5-1.1-2.5-2.5V79.3c0-1.4,1.1-2.5,2.5-2.5h7.1c1.4,0,2.5,1.1,2.5,2.5v35.6
	C371.7,116.3,370.5,117.4,369.2,117.4z"/>
<line class="st2" x1="366.8" y1="220.1" x2="422.9" y2="175.6"/>
<path class="st5" d="M420.3,178.4l-0.7-0.8c-0.9-1-0.8-2.6,0.3-3.5l11.7-10.1c1-0.9,2.6-0.8,3.5,0.3l0.7,0.8c0.9,1,0.8,2.6-0.3,3.5
	l-11.7,10.1C422.8,179.6,421.2,179.5,420.3,178.4z"/>
<line class="st2" x1="365.6" y1="236.3" x2="319.8" y2="199.1"/>
<path class="st5" d="M321.8,199.8l-0.9,1.2c-0.5,0.6-1.3,0.7-1.9,0.3l-9.3-6.8c-0.6-0.4-0.7-1.3-0.3-1.9l0.9-1.2
	c0.5-0.6,1.3-0.7,1.9-0.3l9.3,6.8C322.2,198.4,322.3,199.2,321.8,199.8z"/>
<path class="st1" d="M524.3,333.9c0,0-4.8,1.7-11.7,5l-3.7,3.5l0.4-1.9c-2.6,1.3-5.3,2.7-8.2,4.3l-1,2.7l-1.9-1
	c-17.9,10.6-38.5,27.4-38.6,48.8c3.5,0,7.3-0.3,11.6-1.9l3.2-4.9l-0.2,3.7C485.6,386.9,500.8,372.5,524.3,333.9z"/>
</svg>
