<svg xmlns="http://www.w3.org/2000/svg" viewBox="3806.229 751.216 31.284 31.284">
  <defs>
    <style>
      .cls-1 {
        fill: #a5e2d0;
      }
    </style>
  </defs>
  <path id="Path_148" data-name="Path 148" class="cls-1" d="M.521,19.813C.261,19.292,0,19.031,0,18.51a1.991,1.991,0,0,1,.521-1.3L17.467.261A.255.255,0,0,1,17.727,0H29.2a1.991,1.991,0,0,1,1.3.521,1.858,1.858,0,0,1,.782,1.564V13.556c0,.261,0,.261-.261.521L14.078,31.023a11.291,11.291,0,0,1-1.3.261,1.991,1.991,0,0,1-1.3-.521Zm21.9-15.12a3.218,3.218,0,0,0-1.043,2.086,2.96,2.96,0,0,0,.782,2.086,3.172,3.172,0,0,0,4.171,0,2.96,2.96,0,0,0,.782-2.086,2.809,2.809,0,0,0-.521-2.086,3.172,3.172,0,0,0-4.171,0Z" transform="translate(3806.229 751.216)"/>
</svg>
